# xmcd CD database file
#
# Track frame offsets:
#	150
#	20076
#	41316
#	63118
#	79170
#	105383
#	113373
#	129537
#	145501
#	160252
#	174615
#	192842
#	214131
#	227182
#	241134
#	262360
#
# Disc length: 3715 seconds
#
# Revision: 2
# Processed by: cddbd v1.5.1PL0 Copyright (c) Steve Scherf et al.
# Submitted via: CDex 1.40Release
#
DISCID=d30e8110
DTITLE=??? - ?????
DYEAR=1900
DGENRE=Classical
TTITLE0=???????????
TTITLE1=???????
TTITLE2=???
TTITLE3=??????
TTITLE4=??
TTITLE5=??????
TTITLE6=???????
TTITLE7=????
TTITLE8=??????
TTITLE9=????
TTITLE10=????
TTITLE11=?????
TTITLE12=????
TTITLE13=??
TTITLE14=?????
TTITLE15=?????????
EXTD=ID3G: 32
EXTT0=
EXTT1=
EXTT2=
EXTT3=
EXTT4=
EXTT5=
EXTT6=
EXTT7=
EXTT8=
EXTT9=
EXTT10=
EXTT11=
EXTT12=
EXTT13=
EXTT14=
EXTT15=
PLAYORDER=
